<?xml version="1.0" encoding="UTF-8"?><svg id="Layer_1" xmlns="http://www.w3.org/2000/svg" viewBox="0 0 384.01 364.22"><defs><style>.cls-1{fill:#ed1c24;opacity:.85;stroke:#ed1c24;stroke-miterlimit:10;}</style></defs><path class="cls-1" d="M50.39,111.09H1.09c-.5,0-.8.6-.4,1l72.1,70.9L1.19,250.39c-.7.7-.2,1.8.8,1.8l51.8.8c1,0,1.9-.3,2.6-.9l45.8-41.3,20.4,18.5-71.9,67.4c-.6.6-.2,1.5.7,1.5h54.7c1,0,1.9-.3,2.6-.9l69-65c1.1-1,1.1-2.7,0-3.8L53.09,112.19c-.7-.7-1.7-1-2.7-1v-.1Z"/><path class="cls-1" d="M117.99,315.89l-.4,46.5c0,.5.6.8,1,.4l75.6-67.5,70.8,68.1c.7.7,1.9.2,1.9-.7l1.3-49c0-.9-.3-1.8-1-2.4l-43.3-43.6,19.8-19.1,70.8,68.5c.6.6,1.6.2,1.6-.6l.5-51.7c0-.9-.4-1.8-1.1-2.5l-68.3-65.6c-1.1-1.1-2.9-1.1-4,0l-124.1,116.7c-.7.7-1.1,1.6-1.1,2.5h0Z"/><path class="cls-1" d="M333.49,253.19l49.3.2c.5,0,.8-.6.4-1l-71.8-71.1,71.8-67.1c.7-.7.2-1.8-.8-1.8l-51.8-1c-1,0-1.9.3-2.6.9l-46,41.1-20.3-18.6,72.2-67.1c.6-.5.2-1.5-.6-1.5l-54.7-.3c-1,0-1.9.4-2.6,1l-69.2,64.7c-1.1,1-1.1,2.7,0,3.8l124.1,116.8c.7.7,1.7,1,2.7,1h-.1Z"/><path class="cls-1" d="M269.79,47.59l-.2-46.5c0-.5-.6-.8-1-.4l-74.8,68.4L122.09,1.79c-.7-.7-1.9-.2-1.9.7l-.7,49c0,.9.4,1.8,1,2.4l43.9,43.1-19.6,19.3L73.19,48.59c-.6-.6-1.6-.2-1.6.6v51.7c.1.9.5,1.8,1.2,2.5l69.1,64.9c1.1,1,2.9,1,4,0l122.7-118.1c.7-.7,1.1-1.6,1.1-2.5l.1-.1Z"/></svg>